<?xml version="1.0" encoding="UTF-8" standalone="no"?>
<svg width="14px" height="24px" viewBox="0 0 14 24" version="1.1" xmlns="http://www.w3.org/2000/svg" xmlns:xlink="http://www.w3.org/1999/xlink" xmlns:sketch="http://www.bohemiancoding.com/sketch/ns">
    <!-- Generator: Sketch 3.3.3 (12072) - http://www.bohemiancoding.com/sketch -->
    <title>Shape Copy</title>
    <desc>Created with Sketch.</desc>
    <defs></defs>
    <g id="Page-1" stroke="none" stroke-width="1" fill="none" fill-rule="evenodd" sketch:type="MSPage">
        <g id="Login" sketch:type="MSArtboardGroup" transform="translate(-71.000000, -583.000000)" fill="#FFFFFF">
            <g id="Login-with-facebook-+-Linkedn" sketch:type="MSLayerGroup" transform="translate(52.000000, 570.000000)">
                <g id="Login-with-facebook" sketch:type="MSShapeGroup">
                    <path d="M31.6964266,13.0049936 L28.5319669,13 C24.976805,13 22.6793032,15.3182797 22.6793032,18.9064324 L22.6793032,21.6296932 L19.4975805,21.6296932 C19.2226419,21.6296932 19,21.8489123 19,22.1193159 L19,26.0650105 C19,26.335414 19.2228958,26.5543834 19.4975805,26.5543834 L22.6793032,26.5543834 L22.6793032,36.510627 C22.6793032,36.7810306 22.9019451,37 23.1768837,37 L27.3281268,37 C27.6030654,37 27.8257073,36.7807809 27.8257073,36.510627 L27.8257073,26.5543834 L31.5458831,26.5543834 C31.8208217,26.5543834 32.0434636,26.335414 32.0434636,26.0650105 L32.0449868,22.1193159 C32.0449868,21.9894822 31.9924363,21.8651415 31.8992668,21.7732593 C31.8060974,21.681377 31.6791636,21.6296932 31.5471525,21.6296932 L27.8257073,21.6296932 L27.8257073,19.321151 C27.8257073,18.2115727 28.0945531,17.6482944 29.5641926,17.6482944 L31.6959189,17.6475453 C31.9706036,17.6475453 32.1932455,17.4283262 32.1932455,17.1581723 L32.1932455,13.4943666 C32.1932455,13.2244624 31.9708575,13.005493 31.6964266,13.0049936 L31.6964266,13.0049936 Z" id="Shape-Copy"></path>
                </g>
            </g>
        </g>
    </g>
</svg>