<?xml version="1.0" encoding="UTF-8" standalone="no"?>
<svg width="25px" height="24px" viewBox="0 0 25 24" version="1.1" xmlns="http://www.w3.org/2000/svg" xmlns:xlink="http://www.w3.org/1999/xlink" xmlns:sketch="http://www.bohemiancoding.com/sketch/ns">
    <!-- Generator: Sketch 3.3.3 (12072) - http://www.bohemiancoding.com/sketch -->
    <title>LinkedIn</title>
    <desc>Created with Sketch.</desc>
    <defs></defs>
    <g id="Page-1" stroke="none" stroke-width="1" fill="none" fill-rule="evenodd" sketch:type="MSPage">
        <g id="iPhone-6" sketch:type="MSArtboardGroup" transform="translate(-50.000000, -594.000000)" fill="#FFFFFF">
            <g id="Linkedn" sketch:type="MSLayerGroup" transform="translate(33.000000, 583.000000)">
                <g id="linkedin11" transform="translate(17.000000, 11.000000)" sketch:type="MSShapeGroup">
                    <path d="M24.9487819,14.6787379 L24.9487819,23.9418641 L19.6014501,23.9418641 L19.6014501,15.2991262 C19.6014501,13.128 18.8280162,11.6462913 16.8924594,11.6462913 C15.4149072,11.6462913 14.5356148,12.6448544 14.1487819,13.6107961 C14.0077146,13.9561165 13.9714037,14.4367573 13.9714037,14.9201359 L13.9714037,23.9418641 L8.62227378,23.9418641 C8.62227378,23.9418641 8.69431555,9.30390291 8.62227378,7.78730097 L13.9708817,7.78730097 L13.9708817,10.0771456 C13.9600348,10.0942718 13.9459397,10.1127379 13.9357309,10.1293398 L13.9708817,10.1293398 L13.9708817,10.0771456 C14.6814965,8.97798058 15.95058,7.40778641 18.7911833,7.40778641 C22.3104988,7.40772816 24.9487819,9.71667961 24.9487819,14.6787379 L24.9487819,14.6787379 Z M3.02685615,-4.4408921e-16 C1.19692575,-4.4408921e-16 0,1.20541748 0,2.79058252 C0,4.34120388 1.16229698,5.58320388 2.95585847,5.58320388 L2.99158933,5.58320388 C4.85696056,5.58320388 6.01705336,4.34143689 6.01705336,2.79058252 C5.98190255,1.20541748 4.85696056,-4.4408921e-16 3.02685615,-4.4408921e-16 L3.02685615,-4.4408921e-16 Z M0.317691415,23.9418641 L5.66479118,23.9418641 L5.66479118,7.78730097 L0.317691415,7.78730097 L0.317691415,23.9418641 L0.317691415,23.9418641 Z" id="LinkedIn"></path>
                </g>
            </g>
        </g>
    </g>
</svg>