<?xml version="1.0" encoding="UTF-8" standalone="no"?>
<svg width="126px" height="48px" viewBox="0 0 126 48" version="1.1" xmlns="http://www.w3.org/2000/svg" xmlns:xlink="http://www.w3.org/1999/xlink" xmlns:sketch="http://www.bohemiancoding.com/sketch/ns">
    <!-- Generator: Sketch 3.3.3 (12072) - http://www.bohemiancoding.com/sketch -->
    <title>bubble-chat-copy-2</title>
    <desc>Created with Sketch.</desc>
    <defs>
        <linearGradient x1="97.778125%" y1="14.4949356%" x2="11.8390625%" y2="92.4025053%" id="linearGradient-1">
            <stop stop-color="#8BC650" offset="0%"></stop>
            <stop stop-color="#0DB14B" offset="100%"></stop>
        </linearGradient>
    </defs>
    <g id="Page-1" stroke="none" stroke-width="1" fill="none" fill-rule="evenodd" sketch:type="MSPage">
        <g id="item-chat" sketch:type="MSArtboardGroup" transform="translate(-251.000000, -654.000000)" fill="url(#linearGradient-1)">
            <g id="bubble-chat-copy-3" sketch:type="MSLayerGroup" transform="translate(251.500000, 654.000000)">
                <g id="Page-1" sketch:type="MSShapeGroup">
                    <g id="Chat">
                        <g id="Group">
                            <g id="Mess-2">
                                <path d="M115,7.5 C120.5,7.5 125,12 125,17.5 L125,37.5 C125,43 120.5,47.5 115,47.5 L25,47.5 C19.5,47.5 15,43 15,37.5 L15,22.1 C14.9,19 14.2,13.7 10,8.5 C6.9,4.6 3.7,3.1 0,1.6 C8.5,-1.9 15.5,4 18,5.4 C19.6,6.3 22,7.5 29.4,7.5 L115,7.5 L115,7.5 Z" id="bubble-chat-copy-2" transform="translate(62.500000, 24.003356) scale(-1, 1) translate(-62.500000, -24.003356) "></path>
                            </g>
                        </g>
                    </g>
                </g>
            </g>
        </g>
    </g>
</svg>