<?xml version="1.0" encoding="UTF-8" standalone="no"?>
<svg width="125px" height="48px" viewBox="0 0 125 48" version="1.1" xmlns="http://www.w3.org/2000/svg" xmlns:xlink="http://www.w3.org/1999/xlink" xmlns:sketch="http://www.bohemiancoding.com/sketch/ns">
    <!-- Generator: Sketch 3.3.3 (12072) - http://www.bohemiancoding.com/sketch -->
    <title>bubble chat copy 2</title>
    <desc>Created with Sketch.</desc>
    <defs></defs>
    <g id="Page-1" stroke="none" stroke-width="1" fill="none" fill-rule="evenodd" sketch:type="MSPage">
        <g id="item-chat" sketch:type="MSArtboardGroup" transform="translate(-27.000000, -654.000000)" fill="#E2E2E2">
            <g id="bubble-chat-copy-2" sketch:type="MSLayerGroup" transform="translate(27.000000, 654.000000)">
                <g id="Page-1" sketch:type="MSShapeGroup">
                    <g id="Chat">
                        <g id="Group">
                            <g id="Mess-2">
                                <path d="M115,7.5 C120.5,7.5 125,12 125,17.5 L125,37.5 C125,43 120.5,47.5 115,47.5 L25,47.5 C19.5,47.5 15,43 15,37.5 L15,22.1 C14.9,19 14.2,13.7 10,8.5 C6.9,4.6 3.7,3.1 0,1.6 C8.5,-1.9 15.5,4 18,5.4 C19.6,6.3 22,7.5 29.4,7.5 L115,7.5 L115,7.5 Z" id="bubble-chat-copy-2"></path>
                            </g>
                        </g>
                    </g>
                </g>
            </g>
        </g>
    </g>
</svg>